<svg width="146" height="146" viewBox="0 0 146 146" fill="none" xmlns="http://www.w3.org/2000/svg">
<path d="M37.4091 33.4546H117.818V111.227H37.4091V33.4546Z" fill="#D9D9D9"/>
<path d="M73 145.5C32.9583 145.5 0.5 113.042 0.5 73C0.5 32.9583 32.9583 0.5 73 0.5C113.042 0.5 145.5 32.9583 145.5 73C145.5 113.042 113.042 145.5 73 145.5ZM63.0095 47.0088C62.5732 46.7176 62.066 46.5503 61.5421 46.5246C61.0182 46.4989 60.4972 46.6157 60.0344 46.8627C59.5717 47.1097 59.1846 47.4776 58.9144 47.9272C58.6442 48.3768 58.501 48.8912 58.5 49.4157V96.5843C58.501 97.1088 58.6442 97.6232 58.9144 98.0728C59.1846 98.5224 59.5717 98.8903 60.0344 99.1373C60.4972 99.3842 61.0182 99.5011 61.5421 99.4754C62.066 99.4497 62.5732 99.2824 63.0095 98.9912L98.3823 75.4143C98.78 75.1495 99.1062 74.7906 99.3319 74.3694C99.5575 73.9482 99.6756 73.4778 99.6756 73C99.6756 72.5222 99.5575 72.0518 99.3319 71.6306C99.1062 71.2094 98.78 70.8505 98.3823 70.5857L63.0095 47.0088Z" fill="#FE5C01"/>
</svg>
